<svg width="45" height="45" viewBox="0 0 45 45" fill="none" xmlns="http://www.w3.org/2000/svg">
<path d="M30 5.6234H35.625M38.475 38.2747C39.0525 37.5715 39.375 36.6172 39.375 35.6234V13.1234C39.375 12.1297 39.0525 11.1734 38.475 10.4722C37.9031 9.76715 37.1231 9.3734 36.3094 9.3734H19.47C16.2356 9.3734 15.6094 6.12778 12.8006 5.67215C12.3056 5.59153 11.7919 5.6234 11.2912 5.6234C9.50437 5.6234 8.61187 5.6234 7.90875 5.92153C7.01434 6.3017 6.30245 7.01426 5.92312 7.90903C5.625 8.6084 5.625 9.5009 5.625 11.2878V35.6234C5.625 36.6172 5.9475 37.5734 6.525 38.2747C7.09875 38.9778 7.87875 39.3734 8.6925 39.3734H36.3075C37.1213 39.3734 37.8994 38.9797 38.475 38.2747Z" stroke="black" stroke-width="1.5" stroke-linecap="round" stroke-linejoin="round"/>
<path d="M25.3125 31.875C27.3016 31.875 29.2093 31.0848 30.6158 29.6783C32.0223 28.2718 32.8125 26.3641 32.8125 24.375C32.8125 22.3859 32.0223 20.4782 30.6158 19.0717C29.2093 17.6652 27.3016 16.875 25.3125 16.875C23.3234 16.875 21.4157 17.6652 20.0092 19.0717C18.6027 20.4782 17.8125 22.3859 17.8125 24.375C17.8125 26.3641 18.6027 28.2718 20.0092 29.6783C21.4157 31.0848 23.3234 31.875 25.3125 31.875Z" stroke="black" stroke-width="1.5" stroke-linecap="round" stroke-linejoin="round"/>
</svg>
