<svg width="30" height="30" viewBox="0 0 30 30" fill="none" xmlns="http://www.w3.org/2000/svg">
<rect width="30" height="30" rx="15" fill="#E6FF26"/>
<path d="M15 26.25C21.2132 26.25 26.25 21.2132 26.25 15C26.25 8.7868 21.2132 3.75 15 3.75C8.7868 3.75 3.75 8.7868 3.75 15C3.75 21.2132 8.7868 26.25 15 26.25Z" stroke="black" stroke-linecap="round" stroke-linejoin="round"/>
<path d="M16.7725 9.09334C16.8578 8.9548 16.8857 8.78846 16.8503 8.62966C16.8149 8.47085 16.719 8.33211 16.5829 8.24292C16.4469 8.15372 16.2814 8.12111 16.1216 8.152C15.9619 8.18289 15.8205 8.27485 15.7275 8.40834L16.7725 9.09334ZM11.3213 15.1321C11.2735 15.2007 11.2399 15.2781 11.2226 15.3599C11.2053 15.4416 11.2046 15.526 11.2204 15.608C11.2363 15.6901 11.2684 15.7681 11.315 15.8375C11.3615 15.9069 11.4215 15.9663 11.4914 16.0121C11.5613 16.0579 11.6397 16.0892 11.7219 16.1042C11.8041 16.1192 11.8885 16.1176 11.97 16.0994C12.0516 16.0812 12.1287 16.0469 12.1967 15.9984C12.2648 15.9499 12.3224 15.8882 12.3662 15.8171L11.3213 15.1321ZM18.125 17.5008C18.125 18.3296 17.7958 19.1245 17.2097 19.7106C16.6237 20.2966 15.8288 20.6258 15 20.6258V21.8758C16.1603 21.8758 17.2731 21.4149 18.0936 20.5944C18.9141 19.774 19.375 18.6612 19.375 17.5008H18.125ZM15 20.6258C14.1712 20.6258 13.3763 20.2966 12.7903 19.7106C12.2042 19.1245 11.875 18.3296 11.875 17.5008H10.625C10.625 18.6612 11.0859 19.774 11.9064 20.5944C12.7269 21.4149 13.8397 21.8758 15 21.8758V20.6258ZM11.875 17.5008C11.875 16.672 12.2042 15.8772 12.7903 15.2911C13.3763 14.7051 14.1712 14.3758 15 14.3758V13.1258C13.8397 13.1258 12.7269 13.5868 11.9064 14.4073C11.0859 15.2277 10.625 16.3405 10.625 17.5008H11.875ZM15 14.3758C15.8288 14.3758 16.6237 14.7051 17.2097 15.2911C17.7958 15.8772 18.125 16.672 18.125 17.5008H19.375C19.375 16.3405 18.9141 15.2277 18.0936 14.4073C17.2731 13.5868 16.1603 13.1258 15 13.1258V14.3758ZM15.7275 8.40834L11.3213 15.1333L12.3662 15.8171L16.7725 9.09334L15.7275 8.40834Z" fill="black"/>
</svg>
