<svg width="47" height="46" viewBox="0 0 47 46" fill="none" xmlns="http://www.w3.org/2000/svg">
<path d="M45.7327 43.5311L31.7652 29.4781C34.3685 26.3602 35.9375 22.3488 35.9375 17.9688C35.9375 8.04497 27.8925 0 17.9688 0C8.04497 0 0 8.04497 0 17.9688C0 27.8925 8.04497 35.9375 17.9688 35.9375C22.4775 35.9375 26.5959 34.2729 29.7512 31.5287L43.6993 45.5644C44.2606 46.1258 45.1713 46.1258 45.7327 45.5644C46.2933 45.0031 46.2933 44.0932 45.7327 43.5311H45.7327ZM17.9688 33.0862C9.61975 33.0862 2.85128 26.3178 2.85128 17.9688C2.85128 9.61975 9.61975 2.85128 17.9688 2.85128C26.3178 2.85128 33.0862 9.61975 33.0862 17.9688C33.0862 26.3178 26.3178 33.0862 17.9688 33.0862Z" fill="black"/>
</svg>
