<svg width="52" height="52" viewBox="0 0 52 52" fill="none" xmlns="http://www.w3.org/2000/svg">
<path d="M26 4.875C14.3518 4.875 4.875 14.3518 4.875 26C4.875 37.6482 14.3518 47.125 26 47.125C37.6482 47.125 47.125 37.6482 47.125 26C47.125 14.3518 37.6482 4.875 26 4.875ZM20.8995 16.7395C22.1863 15.3755 23.9972 14.625 26 14.625C28.0028 14.625 29.7974 15.3806 31.0893 16.7517C32.3984 18.1411 33.0352 20.0078 32.8849 22.0147C32.5843 26 29.4968 29.25 26 29.25C22.5032 29.25 19.4096 26 19.1151 22.0137C18.9658 19.9905 19.6016 18.1177 20.8995 16.7395ZM26 43.875C23.6138 43.8765 21.2515 43.3989 19.0533 42.4704C16.8551 41.5419 14.8657 40.1815 13.2031 38.4698C14.1553 37.1119 15.3686 35.9573 16.772 35.0736C19.3609 33.4141 22.6373 32.5 26 32.5C29.3627 32.5 32.6391 33.4141 35.2249 35.0736C36.6295 35.957 37.8438 37.1116 38.7969 38.4698C37.1344 40.1818 35.1451 41.5423 32.9468 42.4708C30.7486 43.3993 28.3863 43.8768 26 43.875Z" fill="black"/>
</svg>
