<svg width="25" height="25" viewBox="0 0 25 25" fill="none" xmlns="http://www.w3.org/2000/svg">
<path d="M19.7917 4.16732H17.7084V3.12565C17.7084 2.84938 17.5986 2.58443 17.4033 2.38908C17.2079 2.19373 16.943 2.08398 16.6667 2.08398C16.3904 2.08398 16.1255 2.19373 15.9301 2.38908C15.7348 2.58443 15.625 2.84938 15.625 3.12565V4.16732H9.37504V3.12565C9.37504 2.84938 9.26529 2.58443 9.06994 2.38908C8.87459 2.19373 8.60964 2.08398 8.33337 2.08398C8.05711 2.08398 7.79215 2.19373 7.5968 2.38908C7.40145 2.58443 7.29171 2.84938 7.29171 3.12565V4.16732H5.20837C4.37957 4.16732 3.58472 4.49656 2.99867 5.08261C2.41261 5.66866 2.08337 6.46352 2.08337 7.29232V19.7923C2.08337 20.6211 2.41261 21.416 2.99867 22.002C3.58472 22.5881 4.37957 22.9173 5.20837 22.9173H19.7917C20.6205 22.9173 21.4154 22.5881 22.0014 22.002C22.5875 21.416 22.9167 20.6211 22.9167 19.7923V7.29232C22.9167 6.46352 22.5875 5.66866 22.0014 5.08261C21.4154 4.49656 20.6205 4.16732 19.7917 4.16732ZM20.8334 19.7923C20.8334 20.0686 20.7236 20.3335 20.5283 20.5289C20.3329 20.7242 20.068 20.834 19.7917 20.834H5.20837C4.93211 20.834 4.66716 20.7242 4.4718 20.5289C4.27645 20.3335 4.16671 20.0686 4.16671 19.7923V12.5007H20.8334V19.7923ZM20.8334 10.4173H4.16671V7.29232C4.16671 7.01605 4.27645 6.7511 4.4718 6.55575C4.66716 6.3604 4.93211 6.25065 5.20837 6.25065H7.29171V7.29232C7.29171 7.56858 7.40145 7.83354 7.5968 8.02889C7.79215 8.22424 8.05711 8.33398 8.33337 8.33398C8.60964 8.33398 8.87459 8.22424 9.06994 8.02889C9.26529 7.83354 9.37504 7.56858 9.37504 7.29232V6.25065H15.625V7.29232C15.625 7.56858 15.7348 7.83354 15.9301 8.02889C16.1255 8.22424 16.3904 8.33398 16.6667 8.33398C16.943 8.33398 17.2079 8.22424 17.4033 8.02889C17.5986 7.83354 17.7084 7.56858 17.7084 7.29232V6.25065H19.7917C20.068 6.25065 20.3329 6.3604 20.5283 6.55575C20.7236 6.7511 20.8334 7.01605 20.8334 7.29232V10.4173Z" fill="black"/>
</svg>
