<svg width="50" height="50" viewBox="0 0 50 50" fill="none" xmlns="http://www.w3.org/2000/svg">
<path fill-rule="evenodd" clip-rule="evenodd" d="M50 25C50 38.8075 38.8075 50 25 50C11.1925 50 0 38.8075 0 25C0 11.1925 11.1925 0 25 0C38.8075 0 50 11.1925 50 25ZM25 45C30.3043 45 35.3914 42.8929 39.1421 39.1421C42.8929 35.3914 45 30.3043 45 25C45 19.6957 42.8929 14.6086 39.1421 10.8579C35.3914 7.10714 30.3043 5 25 5C19.6957 5 14.6086 7.10714 10.8579 10.8579C7.10714 14.6086 5 19.6957 5 25C5 30.3043 7.10714 35.3914 10.8579 39.1421C14.6086 42.8929 19.6957 45 25 45Z" fill="#565050"/>
<path fill-rule="evenodd" clip-rule="evenodd" d="M25 30C24.337 30 23.7011 29.7366 23.2322 29.2678C22.7634 28.7989 22.5 28.163 22.5 27.5V15C22.5 14.337 22.7634 13.7011 23.2322 13.2322C23.7011 12.7634 24.337 12.5 25 12.5C25.663 12.5 26.2989 12.7634 26.7678 13.2322C27.2366 13.7011 27.5 14.337 27.5 15V27.5C27.5 28.163 27.2366 28.7989 26.7678 29.2678C26.2989 29.7366 25.663 30 25 30Z" fill="#565050"/>
<path d="M22.5 35C22.5 34.337 22.7634 33.7011 23.2322 33.2322C23.7011 32.7634 24.337 32.5 25 32.5C25.663 32.5 26.2989 32.7634 26.7678 33.2322C27.2366 33.7011 27.5 34.337 27.5 35C27.5 35.663 27.2366 36.2989 26.7678 36.7678C26.2989 37.2366 25.663 37.5 25 37.5C24.337 37.5 23.7011 37.2366 23.2322 36.7678C22.7634 36.2989 22.5 35.663 22.5 35Z" fill="#565050"/>
</svg>
