<svg width="25" height="25" viewBox="0 0 25 25" fill="none" xmlns="http://www.w3.org/2000/svg">
<path d="M10.9041 0.038353C8.28341 0.385911 6.11996 1.19688 4.2353 2.55236C3.27625 3.23589 1.73729 4.89258 1.21316 5.79623C-0.638045 9.02852 -0.359249 12.7126 1.97148 15.748C2.56253 16.5242 3.3097 17.2077 4.87096 18.4126C5.1386 18.6211 5.462 18.9339 5.57352 19.0961C5.88577 19.5248 6.03075 20.8339 5.88577 21.9924C5.77425 22.9424 5.40624 24.5064 5.19436 24.9235C4.92672 25.4449 8.41724 23.1857 10.2573 21.6449C10.8037 21.1931 11.3502 20.776 11.4728 20.6949C11.6067 20.6254 12.4207 20.5211 13.2906 20.4632C14.1604 20.4168 15.2198 20.2894 15.6436 20.1967C20.2605 19.1772 23.5837 16.3504 24.7435 12.4809C24.9554 11.7742 25 11.3572 25 10.2797C24.9888 7.61512 24.119 5.65721 22.0336 3.60662C20.4278 2.04261 18.1305 0.837738 15.7551 0.316401C14.6623 0.0846951 11.8297 -0.0774997 10.9041 0.038353Z" fill="white"/>
</svg>
