<svg width="25" height="25" viewBox="0 0 25 25" fill="none" xmlns="http://www.w3.org/2000/svg">
<path fill-rule="evenodd" clip-rule="evenodd" d="M0 11.1111C0 5.87361 -2.38419e-07 3.25417 1.62778 1.62778C3.25556 0.00138879 5.87361 0 11.1111 0H13.8889C19.1264 0 21.7458 -2.38419e-07 23.3722 1.62778C24.9986 3.25556 25 5.87361 25 11.1111V13.8889C25 19.1264 25 21.7458 23.3722 23.3722C21.7444 24.9986 19.1264 25 13.8889 25H11.1111C5.87361 25 3.25417 25 1.62778 23.3722C0.00138879 21.7444 0 19.1264 0 13.8889V11.1111ZM20.8333 6.25C20.8333 6.80253 20.6138 7.33244 20.2231 7.72314C19.8324 8.11384 19.3025 8.33333 18.75 8.33333C18.1975 8.33333 17.6676 8.11384 17.2769 7.72314C16.8862 7.33244 16.6667 6.80253 16.6667 6.25C16.6667 5.69747 16.8862 5.16756 17.2769 4.77686C17.6676 4.38616 18.1975 4.16667 18.75 4.16667C19.3025 4.16667 19.8324 4.38616 20.2231 4.77686C20.6138 5.16756 20.8333 5.69747 20.8333 6.25ZM15.2778 13.8889C15.2778 14.6256 14.9851 15.3321 14.4642 15.8531C13.9433 16.374 13.2367 16.6667 12.5 16.6667C11.7633 16.6667 11.0567 16.374 10.5358 15.8531C10.0149 15.3321 9.72222 14.6256 9.72222 13.8889C9.72222 13.1522 10.0149 12.4456 10.5358 11.9247C11.0567 11.4038 11.7633 11.1111 12.5 11.1111C13.2367 11.1111 13.9433 11.4038 14.4642 11.9247C14.9851 12.4456 15.2778 13.1522 15.2778 13.8889ZM18.0556 13.8889C18.0556 15.3623 17.4702 16.7754 16.4284 17.8173C15.3865 18.8591 13.9734 19.4444 12.5 19.4444C11.0266 19.4444 9.6135 18.8591 8.57163 17.8173C7.52976 16.7754 6.94444 15.3623 6.94444 13.8889C6.94444 12.4155 7.52976 11.0024 8.57163 9.96052C9.6135 8.91865 11.0266 8.33333 12.5 8.33333C13.9734 8.33333 15.3865 8.91865 16.4284 9.96052C17.4702 11.0024 18.0556 12.4155 18.0556 13.8889Z" fill="white"/>
</svg>
