<svg width="35" height="35" viewBox="0 0 35 35" fill="none" xmlns="http://www.w3.org/2000/svg">
<path d="M24.0622 4.875C28.2782 4.875 31.5835 8.16615 31.5837 12.3955C31.5837 14.9801 30.422 17.3711 28.278 19.9941C26.1285 22.6239 23.0439 25.4258 19.279 28.8398L19.278 28.8408L17.4997 30.459L15.7224 28.8408L15.7214 28.8398L13.029 26.3877C10.4722 24.0361 8.33355 21.9665 6.72137 19.9941C4.57756 17.3712 3.41669 14.9799 3.41669 12.3955C3.41686 8.16626 6.72134 4.87517 10.9372 4.875C13.3235 4.875 15.6227 5.98888 17.1208 7.73438L17.4997 8.17578L17.8796 7.73438C19.3776 5.98896 21.676 4.8751 24.0622 4.875Z" fill="white" stroke="black"/>
</svg>
