<svg width="39" height="41" viewBox="0 0 39 41" fill="none" xmlns="http://www.w3.org/2000/svg">
<path fill-rule="evenodd" clip-rule="evenodd" d="M16.4393 10.6293L15.616 11.2614L15.5582 11.3142C15.0415 11.7916 14.6302 12.3402 14.3225 12.9585C14.0964 13.4104 13.9048 14.0477 13.7769 14.8794H7.96875L14.9528 20.8657C14.0815 21.8283 13.6309 23.0005 13.6309 24.3952C13.6309 24.6536 13.6453 24.9038 13.6739 25.146L4.25003 17.0044V36.1294H34V17.0044L24.1645 25.5017C24.2253 25.1652 24.2557 24.8131 24.2559 24.4456C24.2559 23.1064 23.8542 21.9783 23.0872 21.0459L30.2812 14.8794H26.2339C27.6725 13.789 28.6854 12.7489 29.3138 11.7948C29.5573 11.4254 29.7681 11.0355 29.9438 10.6294H38.25V40.3794H0V10.6294L16.4393 10.6293ZM19.2555 29.7427L19.125 29.8552L19.0027 29.7496C19.0878 29.749 19.1721 29.7467 19.2555 29.7427ZM19.1338 21.25C20.0532 21.25 20.8129 21.5528 21.4129 22.1584C22.0128 22.7638 22.3128 23.5263 22.3128 24.4459C22.3128 25.3542 22.0128 26.1112 21.4129 26.7167C20.813 27.3223 20.0533 27.625 19.1338 27.625C18.1918 27.625 17.4236 27.3222 16.8293 26.7167C16.235 26.1111 15.9378 25.3373 15.9378 24.3954C15.9378 23.4984 16.2406 22.7499 16.8462 22.1499C17.4517 21.55 18.2142 21.25 19.1338 21.25ZM20.1215 0C23.0022 0 25.1943 0.709053 26.6979 2.12716C28.0245 3.40083 28.6878 5.05534 28.6878 7.09069C28.6878 8.46929 28.3656 9.64777 27.7213 10.6261C27.1575 11.4821 26.2067 12.4009 24.869 13.3825L24.272 13.8071C23.0086 14.6868 22.2315 15.3598 21.9409 15.8259C21.6502 16.2921 21.5049 17.1226 21.505 18.3175V19.125H15.9142V17.3918C15.9142 15.7241 16.0784 14.562 16.4069 13.9055C16.5964 13.5248 16.8492 13.1867 17.165 12.8911L17.5177 12.5856C17.6879 12.4464 17.8601 12.3097 18.0345 12.1757L20.0676 10.663C20.9264 10.0082 21.5097 9.4936 21.8177 9.11934C22.2283 8.62036 22.4336 8.03605 22.4336 7.36641C22.4336 6.52604 22.1462 5.85965 21.5713 5.36725C20.9964 4.87485 20.2163 4.62865 19.2308 4.62865C17.6135 4.62865 15.6614 5.30486 13.3746 6.65729L11.6879 2.28474C14.4927 0.76158 17.3039 0 20.1215 0Z" fill="#FFFDFD"/>
</svg>
