<svg width="37" height="41" viewBox="0 0 37 41" fill="none" xmlns="http://www.w3.org/2000/svg">
<path d="M27.7917 11.125C27.7917 13.6114 26.8039 15.996 25.0458 17.7541C23.2876 19.5123 20.9031 20.5 18.4167 20.5C15.9303 20.5 13.5457 19.5123 11.7875 17.7541C10.0294 15.996 9.04167 13.6114 9.04167 11.125C9.04167 8.6386 10.0294 6.25403 11.7875 4.49587C13.5457 2.73772 15.9303 1.75 18.4167 1.75C20.9031 1.75 23.2876 2.73772 25.0458 4.49587C26.8039 6.25403 27.7917 8.6386 27.7917 11.125ZM35.0833 39.25V35.0833C35.0833 32.8732 34.2054 30.7536 32.6426 29.1908C31.0798 27.628 28.9601 26.75 26.75 26.75H10.0833C7.8732 26.75 5.75358 27.628 4.19078 29.1908C2.62797 30.7536 1.75 32.8732 1.75 35.0833V39.25H35.0833Z" stroke="white" stroke-width="3.5" stroke-linecap="square"/>
</svg>
