<svg width="34" height="34" viewBox="0 0 34 34" fill="none" xmlns="http://www.w3.org/2000/svg">
<path d="M16.875 26.25C17.4062 26.25 17.8519 26.07 18.2119 25.71C18.5719 25.35 18.7512 24.905 18.75 24.375C18.7487 23.845 18.5688 23.4 18.21 23.04C17.8512 22.68 17.4062 22.5 16.875 22.5C16.3438 22.5 15.8988 22.68 15.54 23.04C15.1813 23.4 15.0012 23.845 15 24.375C14.9987 24.905 15.1788 25.3506 15.54 25.7119C15.9012 26.0731 16.3463 26.2525 16.875 26.25ZM15 18.75H18.75V7.5H15V18.75ZM9.84375 33.75L0 23.9062V9.84375L9.84375 0H23.9062L33.75 9.84375V23.9062L23.9062 33.75H9.84375ZM11.4375 30H22.3125L30 22.3125V11.4375L22.3125 3.75H11.4375L3.75 11.4375V22.3125L11.4375 30Z" fill="white"/>
</svg>
