<svg width="16" height="16" viewBox="0 0 16 16" fill="none" xmlns="http://www.w3.org/2000/svg">
<path d="M8.499 7.5C8.499 7.36739 8.44632 7.24021 8.35255 7.14645C8.25879 7.05268 8.13161 7 7.999 7C7.86639 7 7.73921 7.05268 7.64545 7.14645C7.55168 7.24021 7.499 7.36739 7.499 7.5V10.5C7.499 10.6326 7.55168 10.7598 7.64545 10.8536C7.73921 10.9473 7.86639 11 7.999 11C8.13161 11 8.25879 10.9473 8.35255 10.8536C8.44632 10.7598 8.499 10.6326 8.499 10.5V7.5ZM8.749 5.5C8.749 5.69878 8.67003 5.88942 8.52948 6.02998C8.38892 6.17054 8.19828 6.2495 7.9995 6.2495C7.80072 6.2495 7.61008 6.17054 7.46952 6.02998C7.32896 5.88942 7.25 5.69878 7.25 5.5C7.25 5.30135 7.32891 5.11084 7.46938 4.97038C7.60984 4.82991 7.80035 4.751 7.999 4.751C8.19765 4.751 8.38816 4.82991 8.52862 4.97038C8.66909 5.11084 8.749 5.30135 8.749 5.5ZM8 1C6.14348 1 4.36301 1.7375 3.05025 3.05025C1.7375 4.36301 1 6.14348 1 8C1 9.85652 1.7375 11.637 3.05025 12.9497C4.36301 14.2625 6.14348 15 8 15C9.85652 15 11.637 14.2625 12.9497 12.9497C14.2625 11.637 15 9.85652 15 8C15 6.14348 14.2625 4.36301 12.9497 3.05025C11.637 1.7375 9.85652 1 8 1ZM2 8C2 7.21207 2.15519 6.43185 2.45672 5.7039C2.75825 4.97595 3.20021 4.31451 3.75736 3.75736C4.31451 3.20021 4.97595 2.75825 5.7039 2.45672C6.43185 2.15519 7.21207 2 8 2C8.78793 2 9.56815 2.15519 10.2961 2.45672C11.0241 2.75825 11.6855 3.20021 12.2426 3.75736C12.7998 4.31451 13.2417 4.97595 13.5433 5.7039C13.8448 6.43185 14 7.21207 14 8C14 9.5913 13.3679 11.1174 12.2426 12.2426C11.1174 13.3679 9.5913 14 8 14C6.4087 14 4.88258 13.3679 3.75736 12.2426C2.63214 11.1174 2 9.5913 2 8Z" fill="#082A71"/>
</svg>
